<svg xmlns="http://www.w3.org/2000/svg" version="1.1" xmlns:xlink="http://www.w3.org/1999/xlink" xmlns:svgjs="http://svgjs.dev/svgjs" width="1000" height="1000" viewBox="0 0 1000 1000"><rect width="1000" height="1000" fill="#01080f"></rect><g transform="matrix(0.7,0,0,0.7,149.70331482953623,230.36890551445543)"><svg viewBox="0 0 320 247" data-background-color="#01080f" preserveAspectRatio="xMidYMid meet" height="771" width="1000" xmlns="http://www.w3.org/2000/svg" xmlns:xlink="http://www.w3.org/1999/xlink"><g id="tight-bounds" transform="matrix(1,0,0,1,0.13578849254551528,-0.09997365579206985)"><svg viewBox="0 0 319.7285250889193 247.2" height="247.2" width="319.7285250889193"><g><svg viewBox="0 0 319.7285250889193 247.2" height="247.2" width="319.7285250889193"><g><svg viewBox="0 0 319.7285250889193 247.2" height="247.2" width="319.7285250889193"><g id="textblocktransform"><svg viewBox="0 0 319.7285250889193 247.2" height="247.2" width="319.7285250889193" id="textblock"><g><svg viewBox="0 0 319.7285250889193 247.2" height="247.2" width="319.7285250889193"><path d="M318.98 53.02C317.477 27.36 313.193 20.227 313.193 20.227 300.041-6.202 283.627-0.506 268.881 3.292 242.847 3.446 216.919 9.091 190.945 12.119 136.427 12.581 81.443 4.986 27.196 23.717 22.1 29.464-5.286 24.846 0.906 56.304 2.53 69.39 8.452 83.913 8.272 95.922 9.083 98.026 10.211 93.202 10.692 96.23 12.375 104.39 15.126 100.541 17.38 105.365 14.239 118.246 16.494 128.971 18.643 140.21 14.855 143.135 10 141.749 7.821 151.449 7.595 158.479 6.378 157.145 5.04 156.837 4.063 156.632 2.094 157.402 2.425 159.608 3.552 167.152-1.288 171.514 1.748 178.904-0.341 186.91 3.191 193.838 2.71 202.511 2.65 204.255 2.981 205.744 3.507 206.154 5.837 208.361 2.44 212.672 2.8 217.342 26.7 249.262 52.628 227.195 77.114 241.872 83.472 231.608 78.692 245.516 81.233 243.36 83.217 240.846 84.66 251.263 86.899 245.362 87.245 243.668 86.719 239.665 87.952 240.435 88.598 240.846 89.169 240.743 89.259 238.382 89.395 234.841 88.207 237.048 87.891 235.201 91.304 225.861 90.462 248.081 93.663 247.158 93.513 244.438 92.581 240.538 94.49 241.051 96.384 237.151 96.444 233.918 98.128 242.693 98.188 244.592 98.488 245.926 98.969 246.85 104.23 237.305 109.461 250.237 114.978 245.926 118.36 241.205 121.606 248.492 125.033 246.696 126.236 245.259 127.453 242.693 128.611 247.004 142.785 247.928 157.891 244.079 171.329 247.158 207.239 241.41 245.613 249.518 283.476 241.923 292.405 238.998 301.679 234.841 310.382 231.506 310.382 231.506 317.432 222.371 317.432 181.316S318.935 145.393 319.16 112.703C319.386 80.013 320.438 78.679 318.935 53.02Z" opacity="1" fill="#010c80" data-fill-palette-color="tertiary"></path><g transform="matrix(1,0,0,1,55.76832,26.230666666666668)"><svg width="208.1918850889193" viewBox="4.489999771118164 -35.689998626708984 38.160003662109375 35.689998626708984" height="194.73866666666666" data-palette-color="#0080ff"><path d="M26.54 0L19.6 0 11.01-28 10.79-28Q11.25-19.46 11.25-16.6L11.25-16.6 11.25 0 4.49 0 4.49-35.69 14.79-35.69 23.24-8.4 23.39-8.4 32.35-35.69 42.65-35.69 42.65 0 35.6 0 35.6-16.89Q35.6-18.09 35.63-19.65 35.67-21.22 35.96-27.95L35.96-27.95 35.74-27.95 26.54 0Z" opacity="1" transform="matrix(1,0,0,1,0,0)" fill="#0080ff" class="undefined-text-0" data-fill-palette-color="quaternary" id="text-0"></path></svg></g></svg></g></svg></g></svg></g><g></g></svg></g><defs></defs></svg><rect width="319.7285250889193" height="247.2" fill="none" stroke="none" visibility="hidden"></rect></g></svg></g></svg>